<svg width="64" height="64" viewBox="0 0 64 64" fill="none" xmlns="http://www.w3.org/2000/svg">
<rect width="64" height="64" rx="32" fill="white"/>
<path d="M45.3329 38.56V42.56C45.3344 42.9314 45.2584 43.2989 45.1096 43.6392C44.9608 43.9794 44.7427 44.2848 44.469 44.5358C44.1954 44.7869 43.8724 44.978 43.5206 45.097C43.1688 45.2159 42.7961 45.2601 42.4263 45.2267C38.3234 44.7809 34.3823 43.3789 30.9196 41.1334C27.698 39.0862 24.9667 36.3549 22.9196 33.1334C20.6662 29.655 19.2639 25.6947 18.8263 21.5734C18.7929 21.2047 18.8368 20.833 18.9549 20.4822C19.0731 20.1313 19.263 19.8089 19.5126 19.5355C19.7622 19.2621 20.066 19.0436 20.4046 18.8941C20.7433 18.7445 21.1094 18.667 21.4796 18.6667H25.4796C26.1267 18.6603 26.754 18.8895 27.2446 19.3114C27.7352 19.7333 28.0557 20.3193 28.1463 20.96C28.3151 22.2401 28.6282 23.497 29.0796 24.7067C29.259 25.1839 29.2978 25.7026 29.1915 26.2012C29.0851 26.6998 28.8381 27.1575 28.4796 27.52L26.7863 29.2134C28.6843 32.5514 31.4482 35.3153 34.7863 37.2134L36.4796 35.52C36.8421 35.1615 37.2998 34.9145 37.7984 34.8082C38.297 34.7018 38.8157 34.7406 39.2929 34.92C40.5026 35.3714 41.7595 35.6845 43.0396 35.8534C43.6873 35.9447 44.2788 36.271 44.7016 36.77C45.1245 37.2691 45.3491 37.9061 45.3329 38.56Z" stroke="#CDA274" stroke-width="2" stroke-linecap="round" stroke-linejoin="round"/>
<path d="M34.7334 18.6667C37.4511 18.953 39.9896 20.1584 41.9292 22.0835C43.8688 24.0085 45.0933 26.5379 45.4001 29.2534" stroke="#CDA274" stroke-width="2" stroke-linecap="round" stroke-linejoin="round"/>
<path d="M34.7334 24C36.0447 24.2586 37.2481 24.9054 38.1872 25.8564C39.1264 26.8075 39.758 28.0188 40.0001 29.3333" stroke="#CDA274" stroke-width="2" stroke-linecap="round" stroke-linejoin="round"/>
</svg>
