<svg width="64" height="64" viewBox="0 0 64 64" fill="none" xmlns="http://www.w3.org/2000/svg">
<rect width="64" height="64" rx="32" fill="white"/>
<path d="M36 44V38.6667C36 37.9594 36.281 37.2811 36.781 36.781C37.2811 36.281 37.9594 36 38.6667 36H44" stroke="#CDA274" stroke-width="2" stroke-linecap="round" stroke-linejoin="round"/>
<path d="M25.333 21.3334V24C25.6206 24.818 26.1663 25.5204 26.8877 26.0013C27.6091 26.4823 28.4673 26.7158 29.333 26.6667V26.6667C30.0403 26.6667 30.7185 26.9477 31.2186 27.4478C31.7187 27.9479 31.9997 28.6261 31.9997 29.3334C31.9997 30.0406 32.2806 30.7189 32.7807 31.219C33.2808 31.7191 33.9591 32 34.6663 32C35.3736 32 36.0519 31.7191 36.552 31.219C37.0521 30.7189 37.333 30.0406 37.333 29.3334C37.333 28.6261 37.614 27.9479 38.1141 27.4478C38.6142 26.9477 39.2924 26.6667 39.9997 26.6667H43.9997" stroke="#CDA274" stroke-width="2" stroke-linecap="round" stroke-linejoin="round"/>
<path d="M20 30.6666H22.6667C23.3739 30.6666 24.0522 30.9476 24.5523 31.4477C25.0524 31.9478 25.3333 32.626 25.3333 33.3333V34.6666C25.3333 35.3739 25.6143 36.0521 26.1144 36.5522C26.6145 37.0523 27.2928 37.3333 28 37.3333C28.7072 37.3333 29.3855 37.6142 29.8856 38.1143C30.3857 38.6144 30.6667 39.2927 30.6667 40V45.3333" stroke="#CDA274" stroke-width="2" stroke-linecap="round" stroke-linejoin="round"/>
<path d="M32.0003 45.3333C39.3641 45.3333 45.3337 39.3638 45.3337 32C45.3337 24.6362 39.3641 18.6666 32.0003 18.6666C24.6365 18.6666 18.667 24.6362 18.667 32C18.667 39.3638 24.6365 45.3333 32.0003 45.3333Z" stroke="#CDA274" stroke-width="2" stroke-linecap="round" stroke-linejoin="round"/>
</svg>
