<svg width="329" height="67" viewBox="0 0 329 67" fill="none" xmlns="http://www.w3.org/2000/svg">
<path d="M93.7716 55.4586H50.8018V53.0244H85.6222V51.2251H50.8018V30.6927L81.812 47.0975L82.6587 45.5099L50.8018 28.576V25.7184L81.6004 42.0173L82.4471 40.4298L50.8018 23.7075V13.018H49.0026V22.755L43.2873 19.6857V0H41.4881V18.7332L27.306 11.2187L0 26.2476V33.2328L6.03271 29.9519V57.2578H27.306H49.0026V66.1481H50.8018V57.2578H93.7716V55.4586ZM49.0026 51.2251H43.2873V26.6709L49.0026 29.7402V51.2251ZM49.0026 24.8717V27.7293L43.1815 24.66V21.8024L49.0026 24.8717ZM41.3823 20.8499V23.6017L27.2001 16.1931V13.3355L41.3823 20.8499ZM12.1713 26.5651L27.2001 18.3098L41.3823 25.7184V51.1193H31.7511V40.5356H23.6017V51.2251H19.0507H12.1713V26.5651ZM41.3823 53.0244V55.4586H31.7511V53.0244H41.3823ZM43.1815 55.4586V53.0244H49.0026V55.4586H43.1815Z" fill="#CDA274"/>
<path d="M112.324 36.1199C112.498 36.1199 112.619 36.2405 112.619 36.4061C112.619 36.5795 112.498 36.7 112.325 36.7H107.562V31.6921C106.53 34.8124 104.294 36.9988 101.272 36.9988C97.469 36.9988 94 34.2848 94 28.2968C94 22.6373 97.4653 19.6353 101.272 19.6353C104.348 19.6353 106.561 21.905 107.562 24.964V11.0516C107.562 10.5731 107.202 10.1548 106.665 10.1548H105.701C105.528 10.1548 105.407 10.0343 105.407 9.86867C105.407 9.69526 105.528 9.5747 105.701 9.5747H110.464V35.2228C110.464 35.7013 110.823 36.1195 111.361 36.1195H112.324L112.324 36.1199ZM102.097 36.143C104.954 36.143 107.585 32.5925 107.585 28.3354C107.585 24.046 104.923 20.4907 102.097 20.4907C99.2015 20.4907 97.1163 22.8337 97.1163 28.306C97.1163 33.7999 99.2015 36.143 102.097 36.143ZM117.675 14.1775C117.675 13.2409 118.446 12.47 119.413 12.47C120.334 12.47 121.105 13.2409 121.105 14.1775C121.105 15.0988 120.334 15.8697 119.413 15.8697C118.446 15.8697 117.675 15.0988 117.675 14.1775ZM122.713 36.1199C122.886 36.1199 123.006 36.2405 123.006 36.4061C123.006 36.5795 122.886 36.7001 122.712 36.7001H116.089C115.916 36.7001 115.795 36.5795 115.795 36.4061C115.795 36.2405 115.916 36.12 116.089 36.12H117.053C117.591 36.12 117.95 35.7018 117.95 35.2232V21.3955C117.95 20.917 117.591 20.4987 117.053 20.4987H116.089C115.916 20.4987 115.795 20.3781 115.795 20.2125C115.795 20.0391 115.916 19.9186 116.089 19.9186H120.852V35.2226C120.852 35.7011 121.211 36.1193 121.749 36.1193H122.713L122.713 36.1199ZM134.293 20.8025C134.293 24.8635 141.158 26.7965 141.158 31.4898C141.158 35.0336 137.859 36.9402 133.617 36.9402C129.775 36.9402 126.737 34.9912 126.737 31.8269C126.737 30.6162 127.397 29.9754 128.076 29.8284L132.851 21.0806C133.068 20.2074 133.489 19.3769 133.938 18.6587C134.272 18.1326 134.694 17.7259 134.888 17.7259C135.09 17.7259 135.203 17.8978 135.144 18.0556C134.672 18.9151 134.293 19.7196 134.293 20.8023L134.293 20.8025ZM133.258 36.3171C137.107 36.3171 138.369 34.3387 138.369 32.1806C138.369 28.8701 132.43 26.6547 132.616 22.6504L128.702 29.8574C129.236 29.9564 129.712 30.391 129.712 31.1594C129.712 32.2693 128.357 32.5398 128.357 33.479C128.357 34.9736 130.567 36.3169 133.258 36.3169V36.3171ZM160.442 27.8967C160.442 28.1855 160.304 28.2897 159.963 28.2897H148.016C148.016 32.5226 149.742 36.0831 153.831 36.0831C157.121 36.0831 158.908 33.675 159.549 31.902C159.625 31.7055 159.73 31.653 159.843 31.653C160.054 31.653 160.136 31.8108 160.106 31.9905C159.811 33.1351 158.022 36.9393 153.418 36.9393C148.866 36.9393 144.892 34.2525 144.892 28.2607C144.892 22.7758 148.223 19.635 152.877 19.635C157.312 19.635 160.442 22.5194 160.442 27.8968L160.442 27.8967ZM148.024 27.7405L157.415 27.7401C157.384 22.6273 155.574 20.2202 152.875 20.2202C150.164 20.2202 148.158 22.8394 148.024 27.7405L148.024 27.7405ZM183.504 36.1199C183.677 36.1199 183.797 36.2405 183.797 36.4061C183.797 36.5795 183.676 36.7 183.503 36.7H176.88C176.707 36.7 176.586 36.5795 176.586 36.4061C176.586 36.2405 176.707 36.1199 176.88 36.1199H177.844C178.382 36.1199 178.741 35.7017 178.741 35.2231V25.5563C178.741 21.8134 176.882 20.7266 175.319 20.7266C172 20.7266 169.736 24.2703 169.736 28.4173V35.2228C169.736 35.7013 170.096 36.1195 170.633 36.1195H171.597C171.77 36.1195 171.891 36.2401 171.891 36.4057C171.891 36.5791 171.77 36.6997 171.597 36.6997H164.974C164.8 36.6997 164.68 36.5791 164.68 36.4057C164.68 36.2401 164.8 36.1195 164.974 36.1195H165.938C166.475 36.1195 166.834 35.7013 166.834 35.2228V21.395C166.834 20.9165 166.475 20.4983 165.938 20.4983H164.974C164.8 20.4983 164.68 20.3777 164.68 20.2121C164.68 20.0387 164.8 19.9181 164.974 19.9181H169.737V25.0343C170.696 21.9601 173.03 19.6938 176.35 19.6938C179.55 19.6938 181.643 21.5695 181.643 24.8773V35.2223C181.643 35.7008 182.002 36.1191 182.54 36.1191H183.504L183.504 36.1199ZM195.682 36.94C191.099 36.94 187.528 33.8461 187.528 28.261C187.528 22.8762 190.999 19.6353 195.682 19.6353C200.196 19.6353 203.828 22.5684 203.828 28.2614C203.828 33.8465 200.312 36.94 195.682 36.94ZM195.662 36.3532C198.556 36.3238 200.728 33.5316 200.728 28.2766C200.728 22.9275 198.524 20.2291 195.682 20.2291C192.856 20.2291 190.629 22.9275 190.629 28.2766C190.629 33.3266 192.728 36.3238 195.662 36.3532ZM236.034 36.1199C236.208 36.1199 236.328 36.2405 236.328 36.4061C236.328 36.5795 236.207 36.7 236.034 36.7H229.41C229.237 36.7 229.117 36.5795 229.117 36.4061C229.117 36.2405 229.237 36.1199 229.411 36.1199H230.374C230.912 36.1199 231.271 35.7017 231.271 35.2231V25.5563C231.271 21.8134 229.412 20.7266 227.85 20.7266C224.53 20.7266 222.267 24.2703 222.267 28.4173V35.2228C222.267 35.7013 222.626 36.1195 223.164 36.1195H224.128C224.301 36.1195 224.421 36.2401 224.421 36.4057C224.421 36.5791 224.301 36.6997 224.128 36.6997H217.504C217.331 36.6997 217.21 36.5791 217.21 36.4057C217.21 36.2401 217.331 36.1195 217.504 36.1195H218.468C219.006 36.1195 219.365 35.7013 219.365 35.2228V11.051C219.365 10.5725 219.006 10.1542 218.468 10.1542H217.504C217.331 10.1542 217.21 10.0336 217.21 9.86803C217.21 9.69463 217.331 9.57407 217.504 9.57407H222.267V25.0343C223.227 21.9601 225.561 19.6938 228.881 19.6938C232.081 19.6938 234.174 21.5695 234.174 24.8773V35.2223C234.174 35.7008 234.533 36.1191 235.071 36.1191H236.034L236.034 36.1199ZM248.213 36.94C243.63 36.94 240.059 33.8461 240.059 28.261C240.059 22.8762 243.53 19.6353 248.213 19.6353C252.727 19.6353 256.359 22.5684 256.359 28.2614C256.359 33.8465 252.842 36.94 248.213 36.94ZM248.192 36.3532C251.087 36.3238 253.258 33.5316 253.258 28.2766C253.258 22.9275 251.055 20.2291 248.213 20.2291C245.386 20.2291 243.16 22.9275 243.16 28.2766C243.16 33.3266 245.259 36.3238 248.192 36.3532ZM290.205 36.1199C290.378 36.1199 290.498 36.24 290.498 36.4056C290.498 36.579 290.377 36.6996 290.204 36.6996H283.58C283.407 36.6996 283.287 36.579 283.287 36.4056C283.287 36.24 283.407 36.1195 283.58 36.1195H284.544C285.082 36.1195 285.441 35.7012 285.441 35.2227V25.5103C285.441 21.8136 283.805 20.7267 282.242 20.7267C278.923 20.7267 276.883 24.2705 276.883 28.4174V35.2229C276.883 35.7014 277.242 36.1197 277.78 36.1197H278.743C278.917 36.1197 279.037 36.2402 279.037 36.4058C279.037 36.5792 278.917 36.6998 278.743 36.6998H272.12C271.947 36.6998 271.827 36.5792 271.827 36.4058C271.827 36.2402 271.947 36.1197 272.121 36.1197H273.084C273.622 36.1197 273.981 35.7014 273.981 35.2229V25.5104C273.981 21.8137 272.345 20.7269 270.783 20.7269C267.463 20.7269 265.423 24.2706 265.423 28.4176V35.2231C265.423 35.7016 265.782 36.1198 266.32 36.1198H267.284C267.457 36.1198 267.578 36.2404 267.578 36.406C267.578 36.5794 267.457 36.7 267.284 36.7H260.661C260.487 36.7 260.367 36.5794 260.367 36.406C260.367 36.2404 260.487 36.1198 260.661 36.1198H261.624C262.162 36.1198 262.521 35.7016 262.521 35.2231V21.3953C262.521 20.9168 262.162 20.4986 261.624 20.4986H260.661C260.487 20.4986 260.367 20.378 260.367 20.2124C260.367 20.039 260.487 19.9184 260.661 19.9184H265.423V24.9189C266.342 21.889 268.534 19.6937 271.814 19.6937C275.18 19.6937 276.75 21.5761 276.855 24.9692C277.77 21.9113 279.975 19.6941 283.275 19.6941C286.475 19.6941 288.344 21.5698 288.344 24.8315V35.223C288.344 35.7015 288.703 36.1198 289.241 36.1198H290.205L290.205 36.1199ZM309.779 27.8967C309.779 28.1855 309.641 28.2897 309.3 28.2897H297.353C297.353 32.5226 299.079 36.0831 303.168 36.0831C306.458 36.0831 308.245 33.675 308.886 31.902C308.962 31.7055 309.067 31.653 309.18 31.653C309.39 31.653 309.473 31.8108 309.443 31.9905C309.148 33.1351 307.358 36.9393 302.755 36.9393C298.202 36.9393 294.229 34.2525 294.229 28.2607C294.229 22.7758 297.56 19.635 302.213 19.635C306.649 19.635 309.778 22.5194 309.778 27.8968L309.779 27.8967ZM297.361 27.7405L306.752 27.7401C306.721 22.6273 304.911 20.2202 302.212 20.2202C299.501 20.2202 297.495 22.8394 297.361 27.7405L297.361 27.7405ZM322.136 20.8025C322.136 24.8635 329 26.7965 329 31.4898C329 35.0336 325.701 36.9402 321.459 36.9402C317.618 36.9402 314.58 34.9912 314.58 31.8269C314.58 30.6162 315.24 29.9754 315.919 29.8284L320.694 21.0806C320.911 20.2074 321.331 19.3769 321.78 18.6587C322.114 18.1326 322.536 17.7259 322.73 17.7259C322.933 17.7259 323.045 17.8978 322.986 18.0556C322.514 18.9151 322.136 19.7196 322.136 20.8023L322.136 20.8025ZM321.1 36.3171C324.95 36.3171 326.212 34.3387 326.212 32.1806C326.212 28.8701 320.272 26.6547 320.459 22.6504L316.544 29.8574C317.078 29.9564 317.554 30.391 317.554 31.1594C317.554 32.2693 316.199 32.5398 316.199 33.479C316.199 34.9736 318.41 36.3169 321.1 36.3169V36.3171Z" fill="black"/>
<path d="M122.577 48.2802H123.484V56.7421H122.577V52.8134H118.407V56.7421H117.5V48.2802H118.407V52.0276H122.577V48.2802ZM129.215 54.8684V50.1539C129.215 49.0055 130.061 48.1593 131.331 48.1593H133.446C134.716 48.1593 135.562 49.0055 135.562 50.1539V54.8684C135.562 56.0168 134.716 56.863 133.446 56.863H131.331C130.061 56.863 129.215 56.0168 129.215 54.8684ZM134.655 54.8684V50.1539C134.655 49.489 134.111 48.9451 133.446 48.9451H131.331C130.666 48.9451 130.122 49.489 130.122 50.1539V54.8684C130.122 55.5333 130.666 56.0773 131.331 56.0773H133.446C134.111 56.0773 134.655 55.5333 134.655 54.8684ZM146.008 55.5937H145.101L142.623 49.6704H142.562L141.716 56.7421H140.81V56.3795L141.898 48.2802H142.986L145.524 54.3849H145.585L148.123 48.2802H149.211L150.299 56.3795V56.7421H149.392L148.546 49.6704H148.486L146.008 55.5937ZM155.789 56.7421V48.2802H161.289V48.8242L161.047 49.0659H156.695V52.0276H160.141V52.8134H156.695V55.9564H161.289V56.7421H155.789ZM172.873 48.2802H173.779V55.9564H178.313V56.7421H172.873V48.2802ZM184.104 56.7421H183.198V48.2802H184.104V56.7421ZM190.984 48.2802V52.0276H192.979L195.034 48.2802H195.941V48.6428L193.704 52.3903L196.062 56.3795V56.7421H195.155L192.979 52.8134H190.984V56.7421H190.078V48.2802H190.984ZM201.189 56.7421V48.2802H206.689V48.8242L206.447 49.0659H202.095V52.0276H205.54V52.8134H202.095V55.9564H206.689V56.7421H201.189ZM223.652 55.9564V56.7421H220.146C218.877 56.7421 218.031 55.8959 218.031 54.7475V50.2748C218.031 49.1264 218.877 48.2802 220.146 48.2802H223.652V48.8242L223.41 49.0659H220.146C219.481 49.0659 218.937 49.6099 218.937 50.2748V54.7475C218.937 55.4124 219.481 55.9564 220.146 55.9564H223.652ZM228.839 56.7421V48.2802H234.34V48.8242L234.098 49.0659H229.746V52.0276H233.191V52.8134H229.746V55.9564H234.34V56.7421H228.839ZM239.467 48.2802H240.373V55.9564H244.907V56.7421H239.467V48.2802ZM249.792 56.7421V48.2802H255.292V48.8242L255.05 49.0659H250.698V52.0276H254.144V52.8134H250.698V55.9564H255.292V56.7421H249.792ZM264.348 52.7529H261.326V55.9564H264.348C265.013 55.9564 265.557 55.4124 265.557 54.7475V53.9618C265.557 53.2969 265.013 52.7529 264.348 52.7529ZM265.013 52.2089V52.2694C265.013 52.2694 266.463 52.5112 266.463 53.9618V54.7475C266.463 55.8959 265.617 56.7421 264.348 56.7421H260.419V48.2802H263.925C265.194 48.2802 266.04 49.1264 266.04 50.2748V50.7583C266.04 51.9672 265.013 52.2089 265.013 52.2089ZM263.925 49.0659H261.326V51.9672H263.925C264.59 51.9672 265.134 51.4232 265.134 50.7583V50.2748C265.134 49.6099 264.59 49.0659 263.925 49.0659ZM272.739 56.7421H271.832V48.2802H275.58C276.849 48.2802 277.695 49.1264 277.695 50.2748V51.4232C277.695 53.1156 276.063 53.3573 276.063 53.3573L277.937 56.3795V56.7421H277.03L275.156 53.4178H272.739V56.7421ZM275.58 49.0659H272.739V52.632H275.58C276.244 52.632 276.788 52.0881 276.788 51.4232V50.2748C276.788 49.6099 276.244 49.0659 275.58 49.0659ZM284.212 56.7421H283.306V48.2802H284.212V56.7421ZM292.664 49.0659V56.7421H291.757V49.0659H289.097V48.2802H295.323V48.8242L295.081 49.0659H292.664ZM302.868 54.1431V56.7421H301.961V54.1431L299.12 48.6428V48.2802H300.027L302.384 53.176H302.445L304.802 48.2802H305.709V48.6428L302.868 54.1431Z" fill="black"/>
</svg>
