<svg width="165" height="49" viewBox="0 0 165 49" fill="none" xmlns="http://www.w3.org/2000/svg">
<path d="M46.04 17.272C45.224 17.272 44.528 17.02 43.952 16.516C43.4 15.988 43.124 15.328 43.124 14.536C43.124 13.72 43.4 13.06 43.952 12.556C44.528 12.052 45.224 11.8 46.04 11.8C46.856 11.8 47.54 12.052 48.092 12.556C48.644 13.06 48.92 13.72 48.92 14.536C48.92 15.328 48.644 15.988 48.092 16.516C47.54 17.02 46.856 17.272 46.04 17.272ZM41.792 37V36.64L42.296 36.496C42.776 36.352 43.1 36.136 43.268 35.848C43.46 35.56 43.556 35.176 43.556 34.696V23.428C43.556 22.924 43.46 22.552 43.268 22.312C43.1 22.048 42.776 21.868 42.296 21.772L41.792 21.664V21.304L48.38 19.18L48.74 19.54L48.632 24.652V34.732C48.632 35.212 48.716 35.596 48.884 35.884C49.076 36.172 49.4 36.388 49.856 36.532L50.216 36.64V37H41.792ZM51.8098 37V36.64L52.3138 36.496C53.1538 36.256 53.5738 35.668 53.5738 34.732V23.464C53.5738 22.936 53.4898 22.552 53.3218 22.312C53.1538 22.048 52.8298 21.868 52.3498 21.772L51.8098 21.628V21.268L57.9658 19.18L58.3258 19.54L58.6138 21.7C59.4538 20.956 60.4018 20.344 61.4578 19.864C62.5138 19.384 63.5578 19.144 64.5898 19.144C66.1738 19.144 67.3858 19.576 68.2258 20.44C69.0898 21.304 69.5218 22.624 69.5218 24.4V34.768C69.5218 35.704 69.9778 36.292 70.8898 36.532L71.2138 36.64V37H62.7178V36.64L63.1858 36.496C64.0258 36.232 64.4458 35.644 64.4458 34.732V23.248C64.4458 21.712 63.6778 20.944 62.1418 20.944C61.0858 20.944 59.9338 21.472 58.6858 22.528V34.768C58.6858 35.704 59.1058 36.292 59.9458 36.532L60.2698 36.64V37H51.8098ZM79.2866 37.54C77.7506 37.54 76.5506 37.156 75.6866 36.388C74.8466 35.62 74.4266 34.396 74.4266 32.716V20.404H71.9426V20.044L72.8066 19.9C73.5506 19.732 74.1866 19.492 74.7146 19.18C75.2666 18.868 75.8066 18.448 76.3346 17.92L79.2866 14.644H79.6466L79.5386 19.684H83.5706V20.404H79.5026V33.364C79.5026 34.204 79.6826 34.84 80.0426 35.272C80.4266 35.704 80.9066 35.92 81.4826 35.92C81.9866 35.92 82.4306 35.8 82.8146 35.56C83.1986 35.296 83.5826 34.948 83.9666 34.516L84.3266 34.876C83.8466 35.692 83.1866 36.34 82.3466 36.82C81.5066 37.3 80.4866 37.54 79.2866 37.54ZM94.3849 19.144C95.9449 19.144 97.2769 19.468 98.3809 20.116C99.4849 20.74 100.325 21.604 100.901 22.708C101.501 23.788 101.801 25.024 101.801 26.416C101.801 26.68 101.789 26.956 101.765 27.244C101.741 27.508 101.693 27.748 101.621 27.964H90.8929C90.9169 30.556 91.3729 32.428 92.2609 33.58C93.1729 34.708 94.5169 35.272 96.2929 35.272C97.4929 35.272 98.4649 35.08 99.2089 34.696C99.9529 34.312 100.649 33.748 101.297 33.004L101.657 33.328C100.913 34.648 99.9169 35.68 98.6689 36.424C97.4449 37.168 95.9689 37.54 94.2409 37.54C92.5369 37.54 91.0249 37.18 89.7049 36.46C88.3849 35.716 87.3529 34.66 86.6089 33.292C85.8649 31.924 85.4929 30.292 85.4929 28.396C85.4929 26.428 85.9249 24.76 86.7889 23.392C87.6529 22 88.7569 20.944 90.1009 20.224C91.4689 19.504 92.8969 19.144 94.3849 19.144ZM94.2769 19.864C93.5809 19.864 92.9809 20.08 92.4769 20.512C91.9969 20.92 91.6129 21.664 91.3249 22.744C91.0609 23.8 90.9169 25.3 90.8929 27.244H97.0489C97.2889 24.628 97.1929 22.744 96.7609 21.592C96.3289 20.44 95.5009 19.864 94.2769 19.864ZM103.595 37V36.64L104.135 36.496C104.615 36.352 104.939 36.136 105.107 35.848C105.299 35.56 105.395 35.188 105.395 34.732V23.464C105.395 22.936 105.299 22.552 105.107 22.312C104.939 22.048 104.615 21.868 104.135 21.772L103.595 21.628V21.268L109.787 19.18L110.147 19.54L110.471 22.636V22.924C110.807 22.252 111.239 21.64 111.767 21.088C112.319 20.512 112.919 20.044 113.567 19.684C114.239 19.324 114.899 19.144 115.547 19.144C116.459 19.144 117.155 19.396 117.635 19.9C118.115 20.404 118.355 21.04 118.355 21.808C118.355 22.624 118.115 23.26 117.635 23.716C117.179 24.148 116.627 24.364 115.979 24.364C114.971 24.364 114.083 23.86 113.315 22.852L113.243 22.78C113.003 22.444 112.727 22.264 112.415 22.24C112.103 22.192 111.815 22.336 111.551 22.672C111.311 22.888 111.107 23.152 110.939 23.464C110.795 23.752 110.651 24.088 110.507 24.472V34.516C110.507 35.476 110.927 36.076 111.767 36.316L112.919 36.64V37H103.595ZM123.806 17.272C122.99 17.272 122.294 17.02 121.718 16.516C121.166 15.988 120.89 15.328 120.89 14.536C120.89 13.72 121.166 13.06 121.718 12.556C122.294 12.052 122.99 11.8 123.806 11.8C124.622 11.8 125.306 12.052 125.858 12.556C126.41 13.06 126.686 13.72 126.686 14.536C126.686 15.328 126.41 15.988 125.858 16.516C125.306 17.02 124.622 17.272 123.806 17.272ZM119.558 37V36.64L120.062 36.496C120.542 36.352 120.866 36.136 121.034 35.848C121.226 35.56 121.322 35.176 121.322 34.696V23.428C121.322 22.924 121.226 22.552 121.034 22.312C120.866 22.048 120.542 21.868 120.062 21.772L119.558 21.664V21.304L126.146 19.18L126.506 19.54L126.398 24.652V34.732C126.398 35.212 126.482 35.596 126.65 35.884C126.842 36.172 127.166 36.388 127.622 36.532L127.982 36.64V37H119.558ZM138.683 37.54C136.859 37.54 135.275 37.168 133.931 36.424C132.587 35.656 131.543 34.576 130.799 33.184C130.079 31.792 129.719 30.16 129.719 28.288C129.719 26.416 130.103 24.796 130.871 23.428C131.663 22.06 132.731 21.004 134.075 20.26C135.443 19.516 136.979 19.144 138.683 19.144C140.387 19.144 141.911 19.516 143.255 20.26C144.599 20.98 145.655 22.024 146.423 23.392C147.215 24.76 147.611 26.392 147.611 28.288C147.611 30.184 147.239 31.828 146.495 33.22C145.775 34.588 144.743 35.656 143.399 36.424C142.079 37.168 140.507 37.54 138.683 37.54ZM138.683 36.82C139.523 36.82 140.195 36.58 140.699 36.1C141.203 35.62 141.563 34.768 141.779 33.544C142.019 32.32 142.139 30.592 142.139 28.36C142.139 26.104 142.019 24.364 141.779 23.14C141.563 21.916 141.203 21.064 140.699 20.584C140.195 20.104 139.523 19.864 138.683 19.864C137.843 19.864 137.159 20.104 136.631 20.584C136.127 21.064 135.755 21.916 135.515 23.14C135.299 24.364 135.191 26.104 135.191 28.36C135.191 30.592 135.299 32.32 135.515 33.544C135.755 34.768 136.127 35.62 136.631 36.1C137.159 36.58 137.843 36.82 138.683 36.82ZM149.193 37V36.64L149.733 36.496C150.213 36.352 150.537 36.136 150.705 35.848C150.897 35.56 150.993 35.188 150.993 34.732V23.464C150.993 22.936 150.897 22.552 150.705 22.312C150.537 22.048 150.213 21.868 149.733 21.772L149.193 21.628V21.268L155.385 19.18L155.745 19.54L156.069 22.636V22.924C156.405 22.252 156.837 21.64 157.365 21.088C157.917 20.512 158.517 20.044 159.165 19.684C159.837 19.324 160.497 19.144 161.145 19.144C162.057 19.144 162.753 19.396 163.233 19.9C163.713 20.404 163.953 21.04 163.953 21.808C163.953 22.624 163.713 23.26 163.233 23.716C162.777 24.148 162.225 24.364 161.577 24.364C160.569 24.364 159.681 23.86 158.913 22.852L158.841 22.78C158.601 22.444 158.325 22.264 158.013 22.24C157.701 22.192 157.413 22.336 157.149 22.672C156.909 22.888 156.705 23.152 156.537 23.464C156.393 23.752 156.249 24.088 156.105 24.472V34.516C156.105 35.476 156.525 36.076 157.365 36.316L158.517 36.64V37H149.193Z" fill="black"/>
<path fill-rule="evenodd" clip-rule="evenodd" d="M34 3C15.2223 3 0 18.2223 0 37H14.7424V36.6625L15.2149 36.5275C15.6649 36.3925 15.9687 36.19 16.1262 35.92C16.3062 35.65 16.3962 35.29 16.3962 34.84V27.2763C16.3962 26.8038 16.3062 26.455 16.1262 26.23C15.9687 25.9825 15.6649 25.8138 15.2149 25.7238L14.7424 25.6225V25.285L20.9187 23.2938L21.2562 23.6313L21.1549 28.4238V34.8737C21.1549 35.3237 21.2337 35.6838 21.3912 35.9538C21.5712 36.2238 21.8749 36.4263 22.3024 36.5612L22.6399 36.6625V37H34V3ZM16.7674 20.7963C17.3074 21.2688 17.9599 21.505 18.7249 21.505C19.4899 21.505 20.1312 21.2688 20.6487 20.7963C21.1662 20.3013 21.4249 19.6825 21.4249 18.94C21.4249 18.175 21.1662 17.5563 20.6487 17.0838C20.1312 16.6113 19.4899 16.375 18.7249 16.375C17.9599 16.375 17.3074 16.6113 16.7674 17.0838C16.2499 17.5563 15.9912 18.175 15.9912 18.94C15.9912 19.6825 16.2499 20.3013 16.7674 20.7963Z" fill="#CDA274"/>
</svg>
