<svg width="86" height="86" viewBox="0 0 86 86" fill="none" xmlns="http://www.w3.org/2000/svg">
<g clip-path="url(#clip0_361_132)">
<path d="M58.7665 75.9667H55.8998V68.8V14.3333C55.8998 14.0467 55.7565 13.6167 55.6131 13.4733L51.4565 1.00333C51.3132 0.43 50.7398 0 50.1665 0C49.5931 0 49.0198 0.43 48.8765 1.00333L44.7198 13.4733C44.5765 13.76 44.4331 14.0467 44.4331 14.3333V68.8V84.5667C44.4331 85.4267 45.0065 86 45.8665 86H54.4665C55.3265 86 55.8998 85.4267 55.8998 84.5667V78.8333H60.1998C61.0598 78.8333 61.6332 78.26 61.6332 77.4V34.4H58.7665V75.9667ZM47.2998 15.7667H53.0331V67.3667H47.2998V15.7667ZM50.1665 6.02L52.4598 12.9H47.8732L50.1665 6.02ZM53.0331 83.1333H47.2998V70.2333H53.0331V83.1333Z" fill="#CDA274"/>
<path d="M84.5667 0H68.8C67.94 0 67.3667 0.573333 67.3667 1.43333V84.5667C67.3667 85.4267 67.94 86 68.8 86H84.5667C85.4267 86 86 85.4267 86 84.5667V1.43333C86 0.573333 85.4267 0 84.5667 0ZM83.1334 83.1333H70.2334V73.1H77.4V70.2333H70.2334V58.7667H77.4V55.9H70.2334V44.4333H77.4V41.5667H70.2334V30.1H77.4V27.2333H70.2334V15.7667H77.4V12.9H70.2334V2.86667H83.1334V83.1333Z" fill="#CDA274"/>
<path d="M20.0667 14.3335C9.03 14.3335 0 23.3635 0 34.4001C0 42.1401 4.44333 49.1635 11.4667 52.4601V63.0668V70.2335C11.4667 71.0935 12.04 71.6668 12.9 71.6668H18.6333V75.9668H21.5V71.6668H27.2333C28.0933 71.6668 28.6667 71.0935 28.6667 70.2335V63.0668V52.4601C35.69 49.1635 40.1333 42.1401 40.1333 34.4001C40.1333 23.3635 31.1033 14.3335 20.0667 14.3335ZM25.8 68.8001H14.3333V64.5001H25.8V68.8001ZM26.66 50.3101C26.0867 50.4535 25.8 51.0268 25.8 51.6001V61.6335H14.3333V58.7668H21.5V55.9001H14.3333V51.6001C14.3333 51.0268 14.0467 50.4535 13.4733 50.3101C7.02333 47.5868 2.86667 41.2801 2.86667 34.4001C2.86667 24.9401 10.6067 17.2001 20.0667 17.2001C29.5267 17.2001 37.2667 24.9401 37.2667 34.4001C37.2667 41.2801 33.11 47.5868 26.66 50.3101Z" fill="#CDA274"/>
<path d="M23.3632 26.23L20.0665 29.5266L16.7698 26.23L14.7632 28.2366L18.6332 32.1066V47.3H21.4998V32.1066L25.3698 28.2366L23.3632 26.23Z" fill="#CDA274"/>
</g>
<defs>
<clipPath id="clip0_361_132">
<rect width="86" height="86" fill="white"/>
</clipPath>
</defs>
</svg>
